<svg xmlns="http://www.w3.org/2000/svg" version="1.1" xmlns:xlink="http://www.w3.org/1999/xlink" width="500" height="500"><svg xmlns="http://www.w3.org/2000/svg" xmlns:xlink="http://www.w3.org/1999/xlink" width="500" zoomAndPan="magnify" viewBox="0 0 375 374.999991" height="500" preserveAspectRatio="xMidYMid meet" version="1.0"><defs><filter x="0%" y="0%" width="100%" height="100%" id="SvgjsFilter1046"><feColorMatrix values="0 0 0 0 1 0 0 0 0 1 0 0 0 0 1 0 0 0 1 0" color-interpolation-filters="sRGB"></feColorMatrix></filter><g></g><clipPath id="SvgjsClipPath1045"><path d="M 37.5 37.5 L 337.5 37.5 L 337.5 337.5 L 37.5 337.5 Z M 37.5 37.5 " clip-rule="nonzero"></path></clipPath><clipPath id="SvgjsClipPath1044"><path d="M 187.5 37.5 L 202.050781 49.808594 L 218.859375 40.777344 L 230.519531 55.828125 L 248.847656 50.46875 L 257.105469 67.597656 L 276.152344 66.148438 L 280.652344 84.613281 L 299.585938 87.128906 L 300.125 106.121094 L 318.121094 112.5 L 314.675781 131.1875 L 330.945312 141.148438 L 323.671875 158.714844 L 337.5 171.820312 L 326.710938 187.5 L 337.5 203.179688 L 323.671875 216.285156 L 330.945312 233.851562 L 314.675781 243.8125 L 318.121094 262.5 L 300.125 268.878906 L 299.585938 287.871094 L 280.652344 290.386719 L 276.152344 308.851562 L 257.105469 307.402344 L 248.847656 324.53125 L 230.519531 319.171875 L 218.859375 334.222656 L 202.050781 325.191406 L 187.5 337.5 L 172.949219 325.191406 L 156.140625 334.222656 L 144.480469 319.171875 L 126.152344 324.53125 L 117.894531 307.402344 L 98.847656 308.851562 L 94.347656 290.386719 L 75.414062 287.871094 L 74.875 268.878906 L 56.878906 262.5 L 60.324219 243.8125 L 44.054688 233.851562 L 51.328125 216.285156 L 37.5 203.179688 L 48.289062 187.5 L 37.5 171.820312 L 51.328125 158.714844 L 44.054688 141.148438 L 60.324219 131.1875 L 56.878906 112.5 L 74.875 106.121094 L 75.414062 87.128906 L 94.347656 84.613281 L 98.847656 66.148438 L 117.894531 67.597656 L 126.152344 50.46875 L 144.480469 55.828125 L 156.140625 40.777344 L 172.949219 49.808594 Z M 187.5 37.5 " clip-rule="nonzero"></path></clipPath><clipPath id="SvgjsClipPath1043"><path d="M 54 54 L 321 54 L 321 320 L 54 320 Z M 54 54 " clip-rule="nonzero"></path></clipPath><clipPath id="SvgjsClipPath1042"><path d="M 194.078125 56.882812 C 198.046875 60.238281 203.667969 60.828125 208.25 58.367188 L 208.273438 58.355469 C 212.648438 56.003906 218.082031 57.15625 221.125 61.085938 C 224.308594 65.191406 229.675781 66.929688 234.660156 65.472656 L 234.71875 65.457031 C 239.480469 64.0625 244.550781 66.320312 246.707031 70.789062 C 248.957031 75.460938 253.84375 78.273438 259.015625 77.878906 L 259.097656 77.875 C 264.039062 77.496094 268.523438 80.753906 269.699219 85.570312 C 270.925781 90.601562 275.113281 94.367188 280.25 95.050781 L 280.339844 95.0625 C 285.246094 95.714844 288.957031 99.832031 289.097656 104.78125 C 289.242188 109.957031 292.558594 114.507812 297.4375 116.238281 L 297.515625 116.265625 C 302.179688 117.917969 304.953125 122.71875 304.054688 127.585938 C 303.117188 132.675781 305.410156 137.816406 309.828125 140.519531 L 309.878906 140.550781 C 314.101562 143.136719 315.8125 148.410156 313.921875 152.984375 C 311.941406 157.769531 313.113281 163.277344 316.871094 166.839844 L 316.890625 166.859375 C 320.488281 170.265625 321.066406 175.785156 318.261719 179.867188 C 315.324219 184.136719 315.324219 189.773438 318.261719 194.042969 C 321.066406 198.125 320.488281 203.644531 316.890625 207.050781 L 316.871094 207.070312 C 313.113281 210.632812 311.941406 216.144531 313.921875 220.925781 C 315.8125 225.5 314.101562 230.773438 309.878906 233.359375 L 309.828125 233.390625 C 305.410156 236.09375 303.117188 241.234375 304.054688 246.324219 C 304.953125 251.195312 302.179688 255.992188 297.515625 257.644531 L 297.4375 257.671875 C 292.558594 259.402344 289.242188 263.953125 289.097656 269.128906 C 288.957031 274.078125 285.246094 278.195312 280.339844 278.847656 L 280.25 278.859375 C 275.113281 279.542969 270.925781 283.308594 269.699219 288.339844 C 268.523438 293.15625 264.039062 296.414062 259.097656 296.035156 L 259.015625 296.03125 C 253.84375 295.636719 248.957031 298.449219 246.707031 303.121094 C 244.550781 307.589844 239.480469 309.847656 234.71875 308.453125 L 234.660156 308.4375 C 229.675781 306.980469 224.308594 308.722656 221.125 312.828125 C 218.082031 316.753906 212.648438 317.90625 208.273438 315.554688 L 208.25 315.542969 C 203.667969 313.082031 198.046875 313.671875 194.078125 317.027344 C 190.28125 320.242188 184.71875 320.242188 180.917969 317.027344 C 176.949219 313.671875 171.328125 313.082031 166.75 315.542969 L 166.726562 315.554688 C 162.347656 317.90625 156.914062 316.753906 153.871094 312.828125 C 150.691406 308.722656 145.320312 306.980469 140.335938 308.4375 L 140.277344 308.453125 C 135.515625 309.847656 130.445312 307.589844 128.292969 303.121094 C 126.039062 298.449219 121.152344 295.636719 115.984375 296.03125 L 115.902344 296.035156 C 110.960938 296.414062 106.472656 293.15625 105.300781 288.339844 C 104.074219 283.308594 99.882812 279.542969 94.75 278.859375 L 94.660156 278.847656 C 89.75 278.195312 86.039062 274.078125 85.898438 269.128906 C 85.753906 263.953125 82.441406 259.402344 77.558594 257.671875 L 77.484375 257.644531 C 72.816406 255.992188 70.042969 251.195312 70.941406 246.324219 C 71.878906 241.234375 69.585938 236.09375 65.171875 233.390625 L 65.121094 233.359375 C 60.898438 230.773438 59.183594 225.5 61.078125 220.925781 C 63.058594 216.144531 61.882812 210.632812 58.125 207.070312 L 58.105469 207.050781 C 54.507812 203.644531 53.929688 198.125 56.738281 194.042969 C 59.675781 189.773438 59.675781 184.136719 56.738281 179.867188 C 53.929688 175.785156 54.507812 170.265625 58.105469 166.859375 L 58.125 166.839844 C 61.882812 163.277344 63.058594 157.765625 61.078125 152.984375 C 59.183594 148.410156 60.898438 143.136719 65.121094 140.550781 L 65.171875 140.519531 C 69.585938 137.816406 71.878906 132.675781 70.941406 127.585938 C 70.042969 122.71875 72.816406 117.917969 77.484375 116.265625 L 77.558594 116.238281 C 82.441406 114.507812 85.753906 109.957031 85.898438 104.78125 C 86.039062 99.832031 89.75 95.714844 94.660156 95.0625 L 94.75 95.050781 C 99.882812 94.367188 104.074219 90.601562 105.300781 85.570312 C 106.472656 80.753906 110.960938 77.496094 115.902344 77.875 L 115.984375 77.878906 C 121.15625 78.273438 126.039062 75.460938 128.292969 70.789062 C 130.445312 66.320312 135.515625 64.0625 140.277344 65.457031 L 140.335938 65.472656 C 145.320312 66.929688 150.691406 65.191406 153.871094 61.085938 C 156.914062 57.15625 162.347656 56.003906 166.726562 58.355469 L 166.75 58.367188 C 171.328125 60.828125 176.949219 60.238281 180.917969 56.882812 C 184.71875 53.667969 190.28125 53.667969 194.078125 56.882812 Z M 194.078125 56.882812 " clip-rule="nonzero"></path></clipPath><clipPath id="SvgjsClipPath1041"><path d="M 214.96875 100.839844 L 223.21875 100.839844 L 223.21875 109.089844 L 214.96875 109.089844 Z M 214.96875 100.839844 " clip-rule="nonzero"></path></clipPath><mask id="SvgjsMask1040"><g filter="url(#f380622ae0)"><rect x="-37.5" width="450" fill="#000000" y="-37.499999" height="449.999989" fill-opacity="0.8"></rect></g></mask><clipPath id="SvgjsClipPath1039"><path d="M 1 2 L 88 2 L 88 71.445312 L 1 71.445312 Z M 1 2 " clip-rule="nonzero"></path></clipPath><clipPath id="SvgjsClipPath1038"><rect x="0" width="89" y="0" height="73"></rect></clipPath><clipPath id="SvgjsClipPath1037"><path d="M 144.1875 109.796875 L 153.9375 109.796875 L 153.9375 119.546875 L 144.1875 119.546875 Z M 144.1875 109.796875 " clip-rule="nonzero"></path></clipPath><clipPath id="SvgjsClipPath1036"><path d="M 181.429688 282.097656 L 193.429688 282.097656 L 193.429688 294.097656 L 181.429688 294.097656 Z M 181.429688 282.097656 " clip-rule="nonzero"></path></clipPath><clipPath id="SvgjsClipPath1035"><path d="M 282.132812 179.726562 L 297.882812 179.726562 L 297.882812 195.476562 L 282.132812 195.476562 Z M 282.132812 179.726562 " clip-rule="nonzero"></path></clipPath><clipPath id="SvgjsClipPath1034"><path d="M 76.5 179.726562 L 92.25 179.726562 L 92.25 195.476562 L 76.5 195.476562 Z M 76.5 179.726562 " clip-rule="nonzero"></path></clipPath></defs><g clip-path="url(#201b442749)"><g clip-path="url(#448131fecc)"><path fill="#697fa4" d="M 37.5 37.5 L 337.5 37.5 L 337.5 337.5 L 37.5 337.5 Z M 37.5 37.5 " fill-opacity="1" fill-rule="nonzero"></path></g></g><g clip-path="url(#9da74a4ee0)"><g clip-path="url(#de28c10a9f)"><path stroke-linecap="butt" transform="matrix(0.75, 0, 0, 0.75, 51.859957, 51.316893)" fill="none" stroke-linejoin="miter" d="M 189.624236 7.421227 C 194.915903 11.895186 202.410695 12.681644 208.520071 9.400394 L 208.551321 9.384769 C 214.384655 6.249352 221.629447 7.78581 225.686739 13.025394 C 229.931531 18.499353 237.087781 20.817061 243.733615 18.874353 L 243.81174 18.853519 C 250.160699 16.994144 256.921116 20.004561 259.796116 25.962895 C 262.796116 32.192062 269.311742 35.942062 276.207575 35.41602 L 276.31695 35.410812 C 282.905492 34.905604 288.88466 39.249354 290.452368 45.671229 C 292.087785 52.379563 297.671118 57.400397 304.520077 58.311855 L 304.639869 58.32748 C 311.181536 59.197272 316.129453 64.686856 316.316953 71.285815 C 316.509661 78.186857 320.931537 84.254565 327.436745 86.561857 L 327.540912 86.598316 C 333.759662 88.801441 337.457579 95.202483 336.259663 101.692067 C 335.009663 108.478525 338.066954 115.332692 343.95758 118.936859 L 344.025288 118.978526 C 349.655497 122.426443 351.936747 129.457693 349.415913 135.556652 C 346.775288 141.931652 348.337788 149.280611 353.348205 154.030612 L 353.374247 154.056653 C 358.171122 158.59832 358.941956 165.957696 355.202372 171.400404 C 351.285705 177.093113 351.285705 184.608739 355.202372 190.301447 C 358.941956 195.744156 358.171122 203.103531 353.374247 207.645198 L 353.348205 207.67124 C 348.337788 212.42124 346.775288 219.770199 349.415913 226.1452 C 351.936747 232.244158 349.655497 239.275409 344.025288 242.723326 L 343.95758 242.764992 C 338.066954 246.369159 335.009663 253.223326 336.259663 260.009785 C 337.457579 266.504577 333.759662 272.900411 327.540912 275.103536 L 327.436745 275.139995 C 320.931537 277.447286 316.509661 283.514995 316.316953 290.416037 C 316.129453 297.014996 311.181536 302.50458 304.639869 303.374371 L 304.520077 303.389996 C 297.671118 304.301455 292.087785 309.322288 290.452368 316.030622 C 288.88466 322.452498 282.905492 326.796248 276.31695 326.29104 L 276.207575 326.285831 C 269.311742 325.75979 262.796116 329.50979 259.796116 335.738957 C 256.921116 341.697291 250.160699 344.707707 243.81174 342.848332 L 243.733615 342.827499 C 237.087781 340.884791 229.931531 343.207707 225.686739 348.681666 C 221.629447 353.916041 214.384655 355.4525 208.551321 352.317083 L 208.520071 352.301458 C 202.410695 349.020208 194.915903 349.806666 189.624236 354.280625 C 184.561736 358.567083 177.145069 358.567083 172.07736 354.280625 C 166.785693 349.806666 159.290901 349.020208 153.186734 352.301458 L 153.155484 352.317083 C 147.316942 355.4525 140.07215 353.916041 136.014858 348.681666 C 131.775274 343.207707 124.613815 340.884791 117.967982 342.827499 L 117.889857 342.848332 C 111.540898 344.707707 104.780481 341.697291 101.910689 335.738957 C 98.90548 329.50979 92.389855 325.75979 85.499229 326.285831 L 85.389854 326.29104 C 78.801312 326.796248 72.816937 322.452498 71.254437 316.030622 C 69.61902 309.322288 64.030478 304.301455 57.186728 303.389996 L 57.066936 303.374371 C 50.520061 302.50458 45.572144 297.014996 45.384644 290.416037 C 45.191935 283.514995 40.775268 277.447286 34.264851 275.139995 L 34.165893 275.103536 C 27.941934 272.900411 24.244017 266.504577 25.441934 260.009785 C 26.691934 253.223326 23.634642 246.369159 17.749225 242.764992 L 17.681517 242.723326 C 12.051308 239.275409 9.76485 232.244158 12.290891 226.1452 C 14.931517 219.770199 13.363808 212.42124 8.353391 207.67124 L 8.327349 207.645198 C 3.530474 203.103531 2.759641 195.744156 6.504433 190.301447 C 10.4211 184.608739 10.4211 177.093113 6.504433 171.400404 C 2.759641 165.957696 3.530474 158.59832 8.327349 154.056653 L 8.353391 154.030612 C 13.363808 149.280611 14.931517 141.931652 12.290891 135.556652 C 9.76485 129.457693 12.051308 122.426443 17.681517 118.978526 L 17.749225 118.936859 C 23.634642 115.332692 26.691934 108.478525 25.441934 101.692067 C 24.244017 95.202483 27.941934 88.801441 34.165893 86.598316 L 34.264851 86.561857 C 40.775268 84.254565 45.191935 78.186857 45.384644 71.285815 C 45.572144 64.686856 50.520061 59.197272 57.066936 58.32748 L 57.186728 58.311855 C 64.030478 57.400397 69.61902 52.379563 71.254437 45.671229 C 72.816937 39.249354 78.801312 34.905604 85.389854 35.410812 L 85.499229 35.41602 C 92.395063 35.942062 98.90548 32.192062 101.910689 25.962895 C 104.780481 20.004561 111.540898 16.994144 117.889857 18.853519 L 117.967982 18.874353 C 124.613815 20.817061 131.775274 18.499353 136.014858 13.025394 C 140.07215 7.78581 147.316942 6.249352 153.155484 9.384769 L 153.186734 9.400394 C 159.290901 12.681644 166.785693 11.895186 172.07736 7.421227 C 177.145069 3.134768 184.561736 3.134768 189.624236 7.421227 Z M 189.624236 7.421227 " stroke="#fee8e6" stroke-width="4" stroke-opacity="1" stroke-miterlimit="4"></path></g></g><g fill="#ffffff" fill-opacity="1"><g transform="translate(124.865366, 249.649568)"><g><path d="M 8.625 0.25 L 7.140625 -0.75 L 6.3125 -3.3125 L 6.140625 -7.546875 L 6.3125 -9.21875 L 6.140625 -10.953125 L 6.21875 -12.28125 L 6.0625 -15.6875 L 6.3125 -19.09375 L 6.140625 -20.578125 L 6.21875 -23.828125 L 5.96875 -25.640625 L 6.3125 -29.046875 L 6.0625 -30.46875 L 6.21875 -40.671875 L 5.96875 -42.328125 L 6.21875 -43.984375 L 6.0625 -54.109375 L 6.21875 -55.53125 L 6.96875 -57.109375 L 8.625 -58.1875 L 10.453125 -58.265625 L 12.125 -58.09375 L 13.6875 -58.1875 L 17.84375 -57.765625 L 20.25 -57.015625 L 21.328125 -55.6875 L 21.171875 -52.296875 L 21.25 -49.71875 L 21.078125 -47.71875 L 21.25 -46.234375 L 21.328125 -40.25 L 21.25 -38.671875 L 21.65625 -36.9375 L 23.078125 -35.9375 L 24.90625 -35.9375 L 26.5625 -36.4375 L 28.390625 -36.6875 L 29.875 -37.34375 L 32.78125 -39.421875 L 34.6875 -42.078125 L 35.1875 -43.828125 L 35.6875 -45.0625 L 36.359375 -50.46875 L 36.265625 -52.125 L 36.515625 -53.703125 L 36.515625 -55.53125 L 37.1875 -57.109375 L 38.921875 -58.09375 L 41.421875 -58.1875 L 43.90625 -57.84375 L 46.640625 -58.1875 L 49.140625 -57.9375 L 50.96875 -57.1875 L 51.703125 -55.53125 L 51.453125 -50.375 L 51.625 -48.71875 L 51.046875 -43.40625 L 49.640625 -38.59375 L 49.046875 -37.09375 L 47.8125 -34.9375 L 45.15625 -31.546875 L 42.578125 -29.375 L 41.5 -27.640625 L 41.828125 -25.734375 L 44.578125 -21.328125 L 45.234375 -19.921875 L 46.140625 -18.34375 L 47.0625 -17.1875 L 49.640625 -12.953125 L 50.71875 -11.625 L 55.859375 -2.234375 L 55.4375 -0.421875 L 53.703125 0 L 52.046875 -0.078125 L 50.546875 0.078125 L 42.15625 0.171875 L 40.25 -0.65625 L 38.671875 -2.234375 L 37.84375 -3.3125 L 37.015625 -4.890625 L 36.015625 -6.140625 L 34.4375 -9.21875 L 33.703125 -10.375 L 33.109375 -11.78125 L 29.71875 -17.34375 L 29.140625 -19.09375 L 28.296875 -20.421875 L 26.390625 -21.828125 L 24.15625 -22 L 22.078125 -21.078125 L 21.171875 -19.671875 L 21.40625 -10.953125 L 21.171875 -9.21875 L 21.328125 -2.578125 L 20.421875 -0.75 L 18.765625 -0.078125 L 16.109375 0.171875 L 13.78125 0 Z M 8.625 0.25 "></path></g></g></g><g fill="#ffffff" fill-opacity="1"><g transform="translate(180.718767, 249.649568)"><g><path d="M 8.625 0.25 L 6.96875 -0.828125 L 6.0625 -2.578125 L 6.140625 -20.921875 L 5.96875 -22.5 L 6.21875 -30.875 L 6.0625 -32.53125 L 6.140625 -45.8125 L 5.96875 -47.3125 L 6.21875 -50.546875 L 5.96875 -55.609375 L 6.890625 -57.359375 L 8.71875 -58.1875 L 11.03125 -57.515625 L 12.953125 -56.109375 L 15.109375 -53.859375 L 16.4375 -52.703125 L 18.59375 -50.125 L 19.75 -49.140625 L 27.3125 -40.75 L 29.140625 -39.09375 L 30.625 -37.1875 L 31.78125 -36.015625 L 32.78125 -34.609375 L 34.53125 -33.953125 L 36.015625 -34.9375 L 41.078125 -40.09375 L 42.15625 -41.5 L 49.46875 -48.96875 L 50.625 -50.46875 L 51.625 -51.375 L 52.703125 -52.703125 L 56.1875 -56.359375 L 57.9375 -57.4375 L 60.34375 -58.1875 L 62.078125 -57.265625 L 63.078125 -55.53125 L 62.90625 -53.953125 L 63 -50.546875 L 62.90625 -49.140625 L 63.078125 -45.5625 L 63 -43.984375 L 63.078125 -35.765625 L 62.90625 -33.953125 L 63.078125 -9.046875 L 62.90625 -7.390625 L 63.15625 -3.078125 L 62.171875 -0.65625 L 60.421875 0.25 L 50.375 -0.078125 L 48.640625 -0.578125 L 47.96875 -2.484375 L 47.96875 -3.734375 L 47.8125 -7.46875 L 47.96875 -8.96875 L 47.8125 -12.03125 L 47.96875 -15.265625 L 47.71875 -18.59375 L 47.890625 -23.15625 L 47.234375 -24.40625 L 46.140625 -23.90625 L 42.75 -20.421875 L 41.578125 -19.59375 L 39.265625 -16.84375 L 38.265625 -15.859375 L 37.09375 -14.609375 L 35.4375 -13.359375 L 33.609375 -13.453125 L 31.875 -14.6875 L 29.625 -16.84375 L 28.546875 -18.171875 L 25.15625 -21.578125 L 24.15625 -22.828125 L 22.828125 -23.90625 L 22 -24.234375 L 21.25 -23.484375 L 21.25 -20.25 L 21.40625 -18.421875 L 21.25 -15.4375 L 21.328125 -13.6875 L 21.078125 -11.125 L 21.328125 -2.40625 L 20.328125 -0.90625 L 18.015625 0.078125 L 15.359375 -0.078125 L 13.53125 0.171875 L 10.296875 0 Z M 8.625 0.25 "></path></g></g></g><g clip-path="url(#bb6f007612)"><path fill="#ffffff" d="M 219.09375 100.839844 L 219.667969 103.222656 C 219.804688 103.800781 220.257812 104.253906 220.835938 104.390625 L 223.21875 104.964844 L 220.835938 105.535156 C 220.257812 105.675781 219.804688 106.128906 219.667969 106.703125 L 219.09375 109.089844 L 218.523438 106.703125 C 218.382812 106.125 217.933594 105.675781 217.355469 105.535156 L 214.96875 104.964844 L 217.351562 104.394531 C 217.933594 104.253906 218.382812 103.800781 218.519531 103.226562 Z M 219.09375 100.839844 " fill-opacity="1" fill-rule="nonzero"></path></g><g mask="url(#1d26ec40bd)"><g transform="matrix(1, 0, 0, 1, 143, 108)"><g clip-path="url(#ba15895a0f)"><g clip-path="url(#cf9656c364)"><path fill="#000000" d="M 55.921875 43.585938 C 56.304688 43.109375 57.757812 42.851562 58.304688 42.734375 C 58.707031 42.648438 59.117188 42.589844 59.53125 42.546875 C 60.890625 42.398438 61.226562 42.292969 61.503906 43.605469 C 61.585938 43.992188 61.578125 43.949219 61.660156 44.320312 C 61.765625 44.78125 61.867188 45.238281 61.992188 45.695312 C 62.371094 47.09375 62.847656 48.476562 63.398438 49.816406 C 63.570312 50.238281 64.390625 52.902344 64.972656 53.046875 C 65.515625 53.183594 66.210938 52.65625 66.636719 52.464844 C 67.597656 52.035156 68.578125 51.652344 69.59375 51.371094 C 73.59375 50.269531 77.898438 49.671875 82.023438 49.265625 C 84.328125 49.042969 88.457031 49.03125 86.832031 52.503906 C 86.074219 54.125 84.582031 55.441406 83.292969 56.640625 C 80.398438 59.347656 77.199219 61.816406 73.742188 63.78125 C 65.816406 68.289062 56.8125 70.058594 47.792969 70.742188 C 38.488281 71.441406 29.261719 71.171875 20.445312 67.832031 C 14.808594 65.691406 9.660156 62.441406 5.097656 58.53125 C 3.683594 57.320312 1.316406 55.253906 1.039062 53.238281 C 0.902344 52.257812 3.183594 52.394531 3.703125 52.371094 C 6.851562 52.242188 10 52.644531 13.101562 53.132812 C 14.949219 53.425781 17.527344 54.347656 19.414062 53.90625 C 20.25 53.707031 20.945312 52.453125 21.421875 51.847656 C 22.460938 50.519531 23.425781 49.140625 24.523438 47.855469 C 25.082031 47.203125 25.890625 46.566406 26.3125 45.8125 C 26.773438 44.988281 25.277344 44.207031 25.539062 43.683594 C 25.644531 43.480469 26.308594 43.78125 26.445312 43.644531 C 26.898438 43.199219 27.050781 41.738281 27.277344 41.15625 C 28.414062 38.21875 28.96875 35.21875 29.363281 32.097656 C 30.335938 24.371094 30.894531 16.875 35.613281 10.304688 C 38.949219 5.660156 44.441406 0.949219 50.636719 2.988281 C 55.003906 4.425781 58.785156 9.015625 59.917969 13.351562 C 60.386719 15.144531 60.558594 17.710938 58.828125 18.921875 C 56.292969 20.695312 50.71875 18.078125 52.261719 14.699219 C 52.6875 13.765625 54.4375 12.527344 55.339844 13.617188 C 55.613281 13.945312 55.792969 14.816406 55.792969 14.816406 C 55.792969 14.816406 55.632812 14.570312 55.507812 14.578125 C 54.722656 14.636719 54.078125 15.386719 54.515625 16.152344 C 55.304688 17.542969 57.96875 16.515625 58.269531 15.238281 C 59.019531 12.039062 55.339844 8.386719 52.449219 7.875 C 51.164062 7.644531 49.609375 7.746094 48.667969 8.761719 C 45.980469 11.648438 47.609375 17.402344 49.175781 20.375 C 52.117188 25.953125 55.828125 31.015625 58.011719 36.984375 C 59.40625 40.789062 59.824219 44.726562 60.109375 48.738281 " fill-opacity="1" fill-rule="nonzero"></path></g></g></g></g><g clip-path="url(#131f18eeab)"><path fill="#ffffff" d="M 149.0625 109.800781 L 149.738281 112.617188 C 149.902344 113.300781 150.4375 113.832031 151.117188 113.996094 L 153.9375 114.671875 L 151.117188 115.347656 C 150.433594 115.511719 149.902344 116.046875 149.738281 116.730469 L 149.0625 119.546875 L 148.386719 116.730469 C 148.222656 116.046875 147.6875 115.511719 147.003906 115.347656 L 144.1875 114.675781 L 147.003906 114 C 147.6875 113.835938 148.21875 113.300781 148.382812 112.617188 Z M 149.0625 109.800781 " fill-opacity="1" fill-rule="nonzero"></path></g><g clip-path="url(#0b1f901078)"><path fill="#ffffff" d="M 187.429688 282.097656 L 188.261719 285.566406 C 188.460938 286.40625 189.121094 287.0625 189.960938 287.265625 L 193.429688 288.097656 L 189.960938 288.929688 C 189.117188 289.128906 188.460938 289.789062 188.261719 290.628906 L 187.429688 294.097656 L 186.597656 290.628906 C 186.394531 289.785156 185.738281 289.128906 184.898438 288.929688 L 181.429688 288.101562 L 184.894531 287.269531 C 185.738281 287.066406 186.394531 286.40625 186.59375 285.570312 Z M 187.429688 282.097656 " fill-opacity="1" fill-rule="nonzero"></path></g><g clip-path="url(#6d44d34c78)"><path fill="#ffffff" d="M 290.007812 179.730469 L 291.101562 184.28125 C 291.367188 185.386719 292.230469 186.246094 293.332031 186.511719 L 297.882812 187.601562 L 293.332031 188.695312 C 292.226562 188.957031 291.367188 189.824219 291.101562 190.925781 L 290.007812 195.476562 L 288.917969 190.925781 C 288.652344 189.820312 287.789062 188.957031 286.6875 188.695312 L 282.132812 187.605469 L 286.683594 186.511719 C 287.789062 186.25 288.648438 185.386719 288.914062 184.28125 Z M 290.007812 179.730469 " fill-opacity="1" fill-rule="nonzero"></path></g><g clip-path="url(#7d04a8e0f5)"><path fill="#ffffff" d="M 84.375 179.730469 L 85.46875 184.28125 C 85.730469 185.386719 86.597656 186.246094 87.699219 186.511719 L 92.25 187.601562 L 87.699219 188.695312 C 86.59375 188.957031 85.730469 189.824219 85.46875 190.925781 L 84.375 195.476562 L 83.285156 190.925781 C 83.019531 189.820312 82.15625 188.957031 81.054688 188.695312 L 76.5 187.605469 L 81.050781 186.511719 C 82.15625 186.25 83.015625 185.386719 83.28125 184.28125 Z M 84.375 179.730469 " fill-opacity="1" fill-rule="nonzero"></path></g></svg><style>@media (prefers-color-scheme: light) { :root { filter: none; } }
@media (prefers-color-scheme: dark) { :root { filter: none; } }
</style></svg>